# xmcd
#
# Track frame offsets: 
#        150
#        15725
#        28330
#        47680
#        72455
#        92770
#        112610
#        126967
#        149997
#        174095
#        197047
#        220350
#        237580
#        250802
#        269450
#
# Disc length: 3940 seconds
#
# Revision: 0
# Processed by: cddbd v1.4PL0 Copyright (c) Steve Scherf et al.
# Submitted via: ExactAudioCopy v0.95a3
#
DISCID=e30f620f
DTITLE=Dutch Tilders - the blues is my life
DYEAR=1989
DGENRE=Blues
TTITLE0=Dutchmans Blues
TTITLE1=Them That Got
TTITLE2=Beat In My Heart
TTITLE3=THE Blues has been my life
TTITLE4=Flip Flop Fly
TTITLE5=Stop and Fix It
TTITLE6=Little Girl Blues
TTITLE7=Last Night Blues
TTITLE8=Cryin (Won't make me stay)
TTITLE9=Built for Comfort
TTITLE10=Moonlight
TTITLE11=Bad Books
TTITLE12=Pool Shootin' Fool
TTITLE13=Nobody knows when you're down and out
TTITLE14=Everyday I Have The Blues
EXTD=
EXTT0=
EXTT1=
EXTT2=
EXTT3=
EXTT4=
EXTT5=
EXTT6=
EXTT7=
EXTT8=
EXTT9=
EXTT10=
EXTT11=
EXTT12=
EXTT13=
EXTT14=
PLAYORDER=
